<svg width="22" height="21" viewBox="0 0 22 21" fill="none" xmlns="http://www.w3.org/2000/svg">
<path d="M8.48002 18.375C8.18373 18.3754 7.89117 18.3089 7.62415 18.1805C7.35712 18.0521 7.12252 17.8651 6.93783 17.6334L2.61315 12.2194C2.52213 12.0825 2.48583 11.9164 2.51142 11.754C2.537 11.5916 2.62262 11.4447 2.75132 11.3424C2.88003 11.2401 3.04244 11.1898 3.20643 11.2015C3.37042 11.2132 3.52404 11.2861 3.6369 11.4056L7.96158 16.8131C8.02534 16.8963 8.10808 16.963 8.20291 17.0077C8.29773 17.0523 8.40186 17.0736 8.5066 17.0697C8.61133 17.0659 8.71362 17.037 8.8049 16.9855C8.89618 16.934 8.97381 16.8614 9.03127 16.7737L18.3303 2.91375C18.3786 2.84222 18.4405 2.7809 18.5124 2.73328C18.5844 2.68567 18.665 2.65269 18.7497 2.63624C18.8344 2.61978 18.9216 2.62017 19.0061 2.63739C19.0907 2.6546 19.171 2.6883 19.2425 2.73656C19.3141 2.78482 19.3754 2.8467 19.423 2.91866C19.4706 2.99062 19.5036 3.07125 19.52 3.15596C19.5365 3.24066 19.5361 3.32778 19.5189 3.41233C19.5017 3.49689 19.468 3.57722 19.4197 3.64875L10.1272 17.5022C9.95431 17.7607 9.72263 17.9746 9.45115 18.1263C9.17967 18.278 8.87611 18.3632 8.56533 18.375H8.48002Z" fill="#FF0000"/>
</svg>
