<svg width="22" height="22" viewBox="0 0 22 22" fill="none" xmlns="http://www.w3.org/2000/svg">
<path d="M1.07118 19.3321C0.536333 19.8669 0.536333 20.734 1.07118 21.2688C1.60602 21.8037 2.47319 21.8037 3.00804 21.2688L1.07118 19.3321ZM12.1384 12.1384C12.6733 11.6035 12.6733 10.7365 12.1384 10.2016C11.6036 9.66676 10.7365 9.66676 10.2017 10.2016L12.1384 12.1384ZM10.2017 10.2016C9.66683 10.7365 9.66683 11.6035 10.2017 12.1384C10.7365 12.6732 11.6036 12.6732 12.1384 12.1384L10.2017 10.2016ZM21.2689 3.00798C21.8038 2.47313 21.8038 1.60596 21.2689 1.07112C20.734 0.536272 19.867 0.536272 19.3321 1.07112L21.2689 3.00798ZM12.1384 10.2016C11.6036 9.66676 10.7365 9.66676 10.2017 10.2016C9.66683 10.7365 9.66683 11.6035 10.2017 12.1384L12.1384 10.2016ZM19.3321 21.2688C19.867 21.8037 20.734 21.8037 21.2689 21.2688C21.8038 20.734 21.8038 19.8669 21.2689 19.3321L19.3321 21.2688ZM10.2017 12.1384C10.7365 12.6732 11.6036 12.6732 12.1384 12.1384C12.6733 11.6035 12.6733 10.7365 12.1384 10.2016L10.2017 12.1384ZM3.00804 1.07112C2.47319 0.536272 1.60602 0.536272 1.07118 1.07112C0.536333 1.60596 0.536333 2.47313 1.07118 3.00798L3.00804 1.07112ZM3.00804 21.2688L12.1384 12.1384L10.2017 10.2016L1.07118 19.3321L3.00804 21.2688ZM12.1384 12.1384L21.2689 3.00798L19.3321 1.07112L10.2017 10.2016L12.1384 12.1384ZM10.2017 12.1384L19.3321 21.2688L21.2689 19.3321L12.1384 10.2016L10.2017 12.1384ZM12.1384 10.2016L3.00804 1.07112L1.07118 3.00798L10.2017 12.1384L12.1384 10.2016Z" fill="#1EFF00"/>
</svg>
