<svg width="28" height="28" viewBox="0 0 28 28" fill="none" xmlns="http://www.w3.org/2000/svg">
<g clip-path="url(#clip0_48_5)">
<path d="M1.36332 24.6045C0.682605 25.2852 0.682605 26.3887 1.36332 27.0694C2.04402 27.7502 3.1477 27.7502 3.82841 27.0694L1.36332 24.6045ZM15.4489 15.4489C16.1297 14.7681 16.1297 13.6647 15.4489 12.9839C14.7682 12.3032 13.6646 12.3032 12.984 12.9839L15.4489 15.4489ZM12.984 12.9839C12.3032 13.6647 12.3032 14.7681 12.984 15.4489C13.6646 16.1295 14.7682 16.1295 15.4489 15.4489L12.984 12.9839ZM27.0695 3.82835C27.7503 3.14764 27.7503 2.04396 27.0695 1.36326C26.3887 0.682543 25.2853 0.682543 24.6045 1.36326L27.0695 3.82835ZM15.4489 12.9839C14.7682 12.3032 13.6646 12.3032 12.984 12.9839C12.3032 13.6647 12.3032 14.7681 12.984 15.4489L15.4489 12.9839ZM24.6045 27.0694C25.2853 27.7502 26.3887 27.7502 27.0695 27.0694C27.7503 26.3887 27.7503 25.2852 27.0695 24.6045L24.6045 27.0694ZM12.984 15.4489C13.6646 16.1295 14.7682 16.1295 15.4489 15.4489C16.1297 14.7681 16.1297 13.6647 15.4489 12.9839L12.984 15.4489ZM3.82841 1.36326C3.1477 0.682543 2.04402 0.682543 1.36332 1.36326C0.682605 2.04396 0.682605 3.14764 1.36332 3.82835L3.82841 1.36326ZM3.82841 27.0694L15.4489 15.4489L12.984 12.9839L1.36332 24.6045L3.82841 27.0694ZM15.4489 15.4489L27.0695 3.82835L24.6045 1.36326L12.984 12.9839L15.4489 15.4489ZM12.984 15.4489L24.6045 27.0694L27.0695 24.6045L15.4489 12.9839L12.984 15.4489ZM15.4489 12.9839L3.82841 1.36326L1.36332 3.82835L12.984 15.4489L15.4489 12.9839Z" fill="#FF0000"/>
</g>
<defs>
<clipPath id="clip0_48_5">
<rect width="28" height="28" fill="white"/>
</clipPath>
</defs>
</svg>
